<svg width="348" height="348" viewBox="0 0 348 348" fill="none" xmlns="http://www.w3.org/2000/svg">
<rect width="347.5" height="347.5" fill="#2C2D2C"/>
<g clip-path="url(#clip0_26_37559)">
<path d="M155.422 177.888H149.995C150.228 176.337 151.159 175.408 152.708 175.408C154.336 175.408 155.344 176.415 155.422 177.888ZM127.049 190.989V201.609H129.143C132.631 201.609 135.499 200.136 135.499 196.337C135.499 192.539 133.018 191.066 129.608 190.989H127.049ZM170.538 195.64C168.677 195.64 167.359 196.958 167.359 198.818C167.359 200.523 168.677 201.919 170.46 201.919C172.476 201.919 173.639 200.523 173.639 198.818C173.715 196.958 172.476 195.64 170.538 195.64ZM195.266 215.096C193.715 215.096 192.708 216.104 192.553 217.576H197.979C197.902 216.026 196.894 215.096 195.266 215.096ZM231.545 116.803V231.531H116.818V116.804H231.545V116.803ZM188.987 198.818C189.064 202.151 191.622 204.4 194.801 204.4C196.429 204.4 198.057 203.779 199.297 202.229L197.436 200.756C196.817 201.532 195.886 202.229 194.568 202.229C193.095 202.229 191.933 201.221 191.7 199.748H199.763V198.973C199.763 195.33 197.747 193.16 194.802 193.16C191.622 193.236 188.987 195.485 188.987 198.818ZM160.072 189.903C160.072 190.678 160.77 191.454 161.778 191.454C162.785 191.454 163.484 190.756 163.484 189.903C163.484 189.05 162.708 188.353 161.779 188.353C160.848 188.353 160.072 189.128 160.072 189.903ZM160.46 193.469V204.089H163.096V193.469H160.46ZM155.112 193.237C153.018 193.16 150.926 194.322 150.926 196.647C150.926 200.679 156.662 198.974 156.662 201.144C156.662 201.996 155.654 202.384 154.879 202.384C153.716 202.384 153.096 201.842 152.399 201.066L150.615 202.694C151.7 203.934 153.096 204.322 154.724 204.322C156.895 204.322 159.298 203.47 159.298 200.911C159.298 196.803 153.561 198.353 153.561 196.415C153.561 195.639 154.414 195.252 155.112 195.252C155.964 195.252 156.662 195.64 157.204 196.337L158.987 194.788C158.057 193.702 156.507 193.237 155.112 193.237ZM147.204 178.973C147.282 182.305 149.841 184.554 153.018 184.554C154.724 184.554 156.274 183.933 157.514 182.383L155.654 180.91C155.034 181.686 154.103 182.383 152.785 182.383C151.313 182.383 150.15 181.376 149.917 179.903H157.98V179.204C157.98 175.562 155.964 173.392 153.019 173.392C149.84 173.392 147.204 175.639 147.204 178.973ZM136.275 184.244H138.91V178.43C138.91 177.034 139.608 175.717 141.314 175.717C143.174 175.717 143.251 177.654 143.251 178.818V184.244H145.888V177.5C145.888 175.329 144.88 173.313 142.012 173.313C140.384 173.313 139.299 174.165 138.911 175.019H138.835V168.506H136.196V184.244H136.275ZM130.461 188.429L124.336 188.507V204.165H130.15C133.872 204.165 138.446 201.684 138.446 196.336C138.367 190.988 134.569 188.429 130.461 188.429ZM122.708 171.143H127.516V184.244H130.228V171.143H135.034V168.663H122.709V171.143H122.708ZM127.049 208.274H124.259V223.935H127.049V208.277V208.274ZM139.065 217.267C138.989 215.096 137.98 213.081 135.112 213.081C133.329 213.081 132.399 213.933 131.856 215.096H131.779V213.391H129.298V224.012H131.934V218.196C131.934 216.801 132.632 215.483 134.337 215.483C136.197 215.483 136.275 217.422 136.275 218.584V223.933H138.91V217.267H139.065ZM148.833 220.832C148.91 216.647 143.174 218.196 143.174 216.336C143.174 215.561 144.026 215.173 144.725 215.173C145.577 215.173 146.274 215.561 146.817 216.258L148.6 214.709C147.747 213.545 146.274 213.081 144.802 213.081C142.632 213.081 140.538 214.166 140.538 216.491C140.538 220.523 146.274 218.817 146.274 220.987C146.274 221.839 145.267 222.227 144.491 222.227C143.329 222.227 142.708 221.685 142.011 220.909L140.228 222.538C141.314 223.778 142.708 224.166 144.336 224.166C146.43 224.242 148.832 223.313 148.832 220.833L148.833 220.832ZM149.375 202.305L147.515 200.832C146.895 201.608 145.964 202.305 144.646 202.305C143.174 202.305 142.011 201.298 141.778 199.825H149.84V199.127C149.84 195.484 147.825 193.314 144.879 193.314C141.701 193.314 139.065 195.561 139.065 198.895C139.065 202.228 141.623 204.476 144.879 204.476C146.584 204.399 148.135 203.856 149.375 202.305ZM157.049 221.608C156.74 221.84 156.042 221.918 155.576 221.918C154.414 221.918 154.104 221.297 154.104 220.212V215.561H157.049V213.315H154.104L154.183 210.214H151.546V213.315H149.376V215.562H151.546V220.446C151.546 222.927 152.167 224.167 155.035 224.167C155.655 224.167 156.586 224.089 157.128 223.779V221.609H157.051L157.049 221.608ZM161.003 213.313H158.368V223.934H161.003V213.313ZM161.312 209.747C161.312 208.895 160.538 208.197 159.608 208.197C158.599 208.197 157.902 208.972 157.902 209.747C157.902 210.599 158.599 211.298 159.607 211.298C160.538 211.298 161.312 210.599 161.312 209.747ZM169.685 221.608C169.375 221.84 168.677 221.918 168.212 221.918C167.049 221.918 166.74 221.297 166.74 220.212V215.561H169.685V213.315H166.74V210.214H164.104V213.315H161.933V215.562H164.104V220.446C164.104 222.927 164.724 224.167 167.592 224.167C168.212 224.167 169.142 224.089 169.685 223.779V221.608ZM170.227 209.437C174.336 209.437 176.196 206.956 176.196 203.158V193.545H173.716V195.097H173.639C172.863 193.778 171.467 193.236 169.995 193.236C166.739 193.236 164.724 195.639 164.724 198.817C164.724 201.841 166.817 204.243 169.995 204.243C171.312 204.243 172.709 203.7 173.483 202.693H173.561V203.469C173.561 205.561 172.785 207.034 170.228 207.034C168.754 207.034 167.669 206.491 166.584 205.484L165.033 207.655C166.507 209.049 168.289 209.437 170.227 209.437ZM180.46 213.312H177.826V219.127H177.902C177.902 220.522 177.205 221.84 175.5 221.84C173.64 221.84 173.562 219.902 173.562 218.74V213.391H170.927V220.135C170.927 222.305 171.934 224.32 174.802 224.32C176.585 224.32 177.515 223.467 178.058 222.305H178.135V224.012H180.616V213.315H180.461L180.46 213.312ZM180.77 198.352C180.693 196.879 181.391 195.639 183.174 195.639C185.034 195.639 185.111 197.576 185.111 198.74V204.088H187.747V197.422C187.747 195.251 186.739 193.236 183.871 193.236C182.088 193.236 181.158 194.088 180.615 195.251H180.539V193.546H178.057V204.166H180.693V198.352H180.77ZM189.142 221.608C188.832 221.84 188.135 221.918 187.669 221.918C186.507 221.918 186.196 221.297 186.196 220.212V215.561H189.142V213.315H186.196V210.214H183.562V213.315H181.392V215.562H183.562V220.446C183.562 222.927 184.183 224.167 187.051 224.167C187.67 224.167 188.601 224.089 189.143 223.779V221.609L189.142 221.608ZM200.538 218.895C200.615 215.173 198.522 213.081 195.577 213.081C192.397 213.081 189.763 215.328 189.763 218.662C189.763 221.994 192.319 224.243 195.576 224.243C197.281 224.243 198.832 223.623 200.073 222.15L198.212 220.677C197.591 221.453 196.66 222.15 195.344 222.15C193.871 222.15 192.708 221.142 192.476 219.669H200.537V218.894L200.538 218.895ZM204.956 222.382C204.956 221.375 204.18 220.678 203.173 220.678C202.165 220.678 201.391 221.453 201.391 222.382C201.391 223.39 202.243 224.088 203.173 224.088C204.104 224.088 204.956 223.311 204.956 222.382ZM208.212 193.39C207.902 193.314 207.591 193.236 207.204 193.236C205.809 193.236 204.646 193.933 204.025 195.173H203.948V193.469H201.313V204.088H203.948V198.428C203.948 197.886 204.336 195.794 206.817 195.794C207.204 195.794 207.669 195.871 208.134 196.027V193.39H208.212ZM217.127 201.066C217.203 196.88 211.467 198.431 211.467 196.57C211.467 195.794 212.319 195.407 213.018 195.407C213.871 195.407 214.568 195.795 215.111 196.492L216.894 194.942C216.042 193.779 214.49 193.314 213.095 193.314C210.925 193.314 208.831 194.4 208.831 196.725C208.831 200.757 214.568 199.051 214.568 201.221C214.568 202.073 213.56 202.461 212.786 202.461C211.622 202.461 211.003 201.919 210.305 201.144L208.522 202.772C209.607 204.012 211.003 204.4 212.631 204.4C214.723 204.4 217.127 203.546 217.127 201.066ZM194.491 195.253C192.941 195.253 191.934 196.26 191.777 197.733H197.205C197.126 196.26 196.119 195.253 194.491 195.253ZM144.569 195.253C143.018 195.253 142.011 196.26 141.856 197.733H147.282C147.205 196.26 146.197 195.253 144.569 195.253Z" fill="#DDDDDD"/>
</g>
<defs>
<clipPath id="clip0_26_37559">
<rect width="115.82" height="115.82" fill="white" transform="translate(115.84 115.84)"/>
</clipPath>
</defs>
</svg>
