<svg width="96" height="96" viewBox="0 0 96 96" fill="none" xmlns="http://www.w3.org/2000/svg">
<path d="M25.728 49.92H23.4239C19.968 49.92 17.1839 52.5118 17.1839 55.68V82.56C17.1839 85.7282 19.968 88.32 23.4239 88.32H25.728C29.1839 88.32 31.968 85.7282 31.968 82.56V55.68C31.968 52.5118 29.1839 49.92 25.728 49.92ZM29.8558 82.56C29.8558 84.6718 28.0317 86.4 25.7277 86.4H23.4236C21.1195 86.4 19.2954 84.6718 19.2954 82.56L19.2957 55.68C19.2957 53.5682 21.1198 51.84 23.4239 51.84H25.728C28.0321 51.84 29.8561 53.5682 29.8561 55.68L29.8558 82.56ZM72.5758 49.92H70.2717C66.8158 49.92 64.0317 52.5118 64.0317 55.68V82.56C64.0317 85.7282 66.8158 88.32 70.2717 88.32H72.5758C76.0317 88.32 78.8158 85.7282 78.8158 82.56V55.68C78.7199 52.5118 75.9358 49.92 72.5758 49.92ZM76.704 82.56C76.704 84.6718 74.8799 86.4 72.5758 86.4H70.2717C67.9677 86.4 66.1436 84.6718 66.1436 82.56L66.1439 55.68C66.1439 53.5682 67.968 51.84 70.272 51.84H72.5761C74.8802 51.84 76.7043 53.5682 76.7043 55.68L76.704 82.56ZM86.688 55.296V43.2C86.688 23.712 69.312 7.776 48 7.776C26.688 7.776 9.31198 23.712 9.31198 43.2V55.296C4.1279 57.0242 0.47998 61.536 0.47998 66.912V71.3279C0.47998 78.1438 6.52814 83.7119 14.016 83.7119C14.5919 83.7119 15.0719 83.3279 15.0719 82.7519V55.4879C15.0719 54.912 14.5919 54.5279 14.016 54.5279C13.1519 54.5279 12.2878 54.6239 11.5201 54.7198V43.1998C11.4241 24.7678 27.8401 9.69579 48.0001 9.69579C68.1601 9.69579 84.5761 24.7678 84.5761 43.1998V54.7198C83.712 54.6239 82.9442 54.5279 82.0801 54.5279C81.5042 54.5279 81.0242 54.912 81.0242 55.4879V82.7519C81.0242 83.3279 81.5042 83.7119 82.0801 83.7119C89.472 83.7119 95.6161 78.1438 95.6161 71.3279V66.912C95.5202 61.5358 91.7761 57.024 86.6881 55.296H86.688ZM12.96 81.696C7.10406 81.216 2.59198 76.8001 2.59198 71.328V66.9121C2.59198 61.4402 7.10382 57.0241 12.96 56.5441V81.696ZM93.408 71.328C93.408 76.7998 88.8961 81.216 83.04 81.696V56.448C88.8 56.928 93.408 61.4398 93.408 66.816V71.328Z" fill="#D5D5D5"/>
</svg>
